<?xml version="1.0" encoding="UTF-8" standalone="no"?>
<svg
   height="605"
   id="vis"
   style="background-color:white"
   viewBox="-5 -5 1250 605"
   width="1250"
   version="1.1"
   xmlns="http://www.w3.org/2000/svg"
   xmlns:svg="http://www.w3.org/2000/svg">
  <defs
     id="defs545" />
  <style
     id="style2">
text {text-anchor: middle; dominant-baseline: central; user-select: none;}
</style>
  <rect
     fill="#dae3f3"
     height="85"
     stroke="#1f77b4"
     stroke-width="2"
     width="85"
     x="0"
     y="0"
     id="rect6">
    <title
       id="title4">(l, w, h) = (0, 0, 0)</title>
  </rect>
  <rect
     fill="#dae3f3"
     height="85"
     stroke="#1f77b4"
     stroke-width="2"
     width="85"
     x="0"
     y="85"
     id="rect10">
    <title
       id="title8">(l, w, h) = (0, 0, 1)</title>
  </rect>
  <rect
     fill="#dae3f3"
     height="85"
     stroke="#1f77b4"
     stroke-width="2"
     width="85"
     x="0"
     y="170"
     id="rect14">
    <title
       id="title12">(l, w, h) = (0, 0, 2)</title>
  </rect>
  <rect
     fill="#dae3f3"
     height="85"
     stroke="#1f77b4"
     stroke-width="2"
     width="85"
     x="0"
     y="255"
     id="rect18">
    <title
       id="title16">(l, w, h) = (0, 0, 3)</title>
  </rect>
  <rect
     fill="#dae3f3"
     height="85"
     stroke="#1f77b4"
     stroke-width="2"
     width="85"
     x="0"
     y="340"
     id="rect22">
    <title
       id="title20">(l, w, h) = (0, 0, 4)</title>
  </rect>
  <rect
     fill="#dae3f3"
     height="85"
     stroke="#1f77b4"
     stroke-width="2"
     width="85"
     x="0"
     y="425"
     id="rect26">
    <title
       id="title24">(l, w, h) = (0, 0, 5)</title>
  </rect>
  <rect
     fill="#dae3f3"
     height="85"
     stroke="#1f77b4"
     stroke-width="2"
     width="85"
     x="0"
     y="510"
     id="rect30">
    <title
       id="title28">(l, w, h) = (0, 0, 6)</title>
  </rect>
  <rect
     fill="#dae3f3"
     height="85"
     stroke="#1f77b4"
     stroke-width="2"
     width="85"
     x="85"
     y="0"
     id="rect34">
    <title
       id="title32">(l, w, h) = (0, 1, 0)</title>
  </rect>
  <rect
     fill="#dae3f3"
     height="85"
     stroke="#1f77b4"
     stroke-width="2"
     width="85"
     x="85"
     y="85"
     id="rect38">
    <title
       id="title36">(l, w, h) = (0, 1, 1)</title>
  </rect>
  <rect
     fill="#dae3f3"
     height="85"
     stroke="#1f77b4"
     stroke-width="2"
     width="85"
     x="85"
     y="170"
     id="rect42">
    <title
       id="title40">(l, w, h) = (0, 1, 2)</title>
  </rect>
  <rect
     fill="#dae3f3"
     height="85"
     stroke="#1f77b4"
     stroke-width="2"
     width="85"
     x="85"
     y="255"
     id="rect46">
    <title
       id="title44">(l, w, h) = (0, 1, 3)</title>
  </rect>
  <rect
     fill="#dae3f3"
     height="85"
     stroke="#1f77b4"
     stroke-width="2"
     width="85"
     x="85"
     y="340"
     id="rect50">
    <title
       id="title48">(l, w, h) = (0, 1, 4)</title>
  </rect>
  <rect
     fill="#dae3f3"
     height="85"
     stroke="#1f77b4"
     stroke-width="2"
     width="85"
     x="85"
     y="425"
     id="rect54">
    <title
       id="title52">(l, w, h) = (0, 1, 5)</title>
  </rect>
  <rect
     fill="#dae3f3"
     height="85"
     stroke="#1f77b4"
     stroke-width="2"
     width="85"
     x="85"
     y="510"
     id="rect58">
    <title
       id="title56">(l, w, h) = (0, 1, 6)</title>
  </rect>
  <rect
     fill="#dae3f3"
     height="85"
     stroke="#1f77b4"
     stroke-width="2"
     width="85"
     x="170"
     y="0"
     id="rect62">
    <title
       id="title60">(l, w, h) = (0, 2, 0)</title>
  </rect>
  <rect
     fill="#dae3f3"
     height="85"
     stroke="#1f77b4"
     stroke-width="2"
     width="85"
     x="170"
     y="85"
     id="rect66">
    <title
       id="title64">(l, w, h) = (0, 2, 1)</title>
  </rect>
  <rect
     fill="#dae3f3"
     height="85"
     stroke="#1f77b4"
     stroke-width="2"
     width="85"
     x="170"
     y="170"
     id="rect70">
    <title
       id="title68">(l, w, h) = (0, 2, 2)</title>
  </rect>
  <rect
     fill="#dae3f3"
     height="85"
     stroke="#1f77b4"
     stroke-width="2"
     width="85"
     x="170"
     y="255"
     id="rect74">
    <title
       id="title72">(l, w, h) = (0, 2, 3)</title>
  </rect>
  <rect
     fill="#dae3f3"
     height="85"
     stroke="#1f77b4"
     stroke-width="2"
     width="85"
     x="170"
     y="340"
     id="rect78">
    <title
       id="title76">(l, w, h) = (0, 2, 4)</title>
  </rect>
  <rect
     fill="#dae3f3"
     height="85"
     stroke="#1f77b4"
     stroke-width="2"
     width="85"
     x="170"
     y="425"
     id="rect82">
    <title
       id="title80">(l, w, h) = (0, 2, 5)</title>
  </rect>
  <rect
     fill="#dae3f3"
     height="85"
     stroke="#1f77b4"
     stroke-width="2"
     width="85"
     x="170"
     y="510"
     id="rect86">
    <title
       id="title84">(l, w, h) = (0, 2, 6)</title>
  </rect>
  <rect
     fill="#dae3f3"
     height="85"
     stroke="#1f77b4"
     stroke-width="2"
     width="85"
     x="255"
     y="0"
     id="rect90">
    <title
       id="title88">(l, w, h) = (0, 3, 0)</title>
  </rect>
  <rect
     fill="#dae3f3"
     height="85"
     stroke="#1f77b4"
     stroke-width="2"
     width="85"
     x="255"
     y="85"
     id="rect94">
    <title
       id="title92">(l, w, h) = (0, 3, 1)</title>
  </rect>
  <rect
     fill="#dae3f3"
     height="85"
     stroke="#1f77b4"
     stroke-width="2"
     width="85"
     x="255"
     y="170"
     id="rect98">
    <title
       id="title96">(l, w, h) = (0, 3, 2)</title>
  </rect>
  <rect
     fill="#dae3f3"
     height="85"
     stroke="#1f77b4"
     stroke-width="2"
     width="85"
     x="255"
     y="255"
     id="rect102">
    <title
       id="title100">(l, w, h) = (0, 3, 3)</title>
  </rect>
  <rect
     fill="#dae3f3"
     height="85"
     stroke="#1f77b4"
     stroke-width="2"
     width="85"
     x="255"
     y="340"
     id="rect106">
    <title
       id="title104">(l, w, h) = (0, 3, 4)</title>
  </rect>
  <rect
     fill="#dae3f3"
     height="85"
     stroke="#1f77b4"
     stroke-width="2"
     width="85"
     x="255"
     y="425"
     id="rect110">
    <title
       id="title108">(l, w, h) = (0, 3, 5)</title>
  </rect>
  <rect
     fill="#dae3f3"
     height="85"
     stroke="#1f77b4"
     stroke-width="2"
     width="85"
     x="255"
     y="510"
     id="rect114">
    <title
       id="title112">(l, w, h) = (0, 3, 6)</title>
  </rect>
  <rect
     fill="#dae3f3"
     height="85"
     stroke="#1f77b4"
     stroke-width="2"
     width="85"
     x="340"
     y="0"
     id="rect118">
    <title
       id="title116">(l, w, h) = (0, 4, 0)</title>
  </rect>
  <rect
     fill="#dae3f3"
     height="85"
     stroke="#1f77b4"
     stroke-width="2"
     width="85"
     x="340"
     y="85"
     id="rect122">
    <title
       id="title120">(l, w, h) = (0, 4, 1)</title>
  </rect>
  <rect
     fill="#dae3f3"
     height="85"
     stroke="#1f77b4"
     stroke-width="2"
     width="85"
     x="340"
     y="170"
     id="rect126">
    <title
       id="title124">(l, w, h) = (0, 4, 2)</title>
  </rect>
  <rect
     fill="#dae3f3"
     height="85"
     stroke="#1f77b4"
     stroke-width="2"
     width="85"
     x="340"
     y="255"
     id="rect130">
    <title
       id="title128">(l, w, h) = (0, 4, 3)</title>
  </rect>
  <rect
     fill="#dae3f3"
     height="85"
     stroke="#1f77b4"
     stroke-width="2"
     width="85"
     x="340"
     y="340"
     id="rect134">
    <title
       id="title132">(l, w, h) = (0, 4, 4)</title>
  </rect>
  <rect
     fill="#dae3f3"
     height="85"
     stroke="#1f77b4"
     stroke-width="2"
     width="85"
     x="340"
     y="425"
     id="rect138">
    <title
       id="title136">(l, w, h) = (0, 4, 5)</title>
  </rect>
  <rect
     fill="#dae3f3"
     height="85"
     stroke="#1f77b4"
     stroke-width="2"
     width="85"
     x="340"
     y="510"
     id="rect142">
    <title
       id="title140">(l, w, h) = (0, 4, 6)</title>
  </rect>
  <rect
     fill="#dae3f3"
     height="85"
     stroke="#1f77b4"
     stroke-width="2"
     width="85"
     x="425"
     y="0"
     id="rect146">
    <title
       id="title144">(l, w, h) = (0, 5, 0)</title>
  </rect>
  <rect
     fill="#dae3f3"
     height="85"
     stroke="#1f77b4"
     stroke-width="2"
     width="85"
     x="425"
     y="85"
     id="rect150">
    <title
       id="title148">(l, w, h) = (0, 5, 1)</title>
  </rect>
  <rect
     fill="#dae3f3"
     height="85"
     stroke="#1f77b4"
     stroke-width="2"
     width="85"
     x="425"
     y="170"
     id="rect154">
    <title
       id="title152">(l, w, h) = (0, 5, 2)</title>
  </rect>
  <rect
     fill="#dae3f3"
     height="85"
     stroke="#1f77b4"
     stroke-width="2"
     width="85"
     x="425"
     y="255"
     id="rect158">
    <title
       id="title156">(l, w, h) = (0, 5, 3)</title>
  </rect>
  <rect
     fill="#dae3f3"
     height="85"
     stroke="#1f77b4"
     stroke-width="2"
     width="85"
     x="425"
     y="340"
     id="rect162">
    <title
       id="title160">(l, w, h) = (0, 5, 4)</title>
  </rect>
  <rect
     fill="#dae3f3"
     height="85"
     stroke="#1f77b4"
     stroke-width="2"
     width="85"
     x="425"
     y="425"
     id="rect166">
    <title
       id="title164">(l, w, h) = (0, 5, 5)</title>
  </rect>
  <rect
     fill="#dae3f3"
     height="85"
     stroke="#1f77b4"
     stroke-width="2"
     width="85"
     x="425"
     y="510"
     id="rect170">
    <title
       id="title168">(l, w, h) = (0, 5, 6)</title>
  </rect>
  <rect
     fill="#dae3f3"
     height="85"
     stroke="#1f77b4"
     stroke-width="2"
     width="85"
     x="510"
     y="0"
     id="rect174">
    <title
       id="title172">(l, w, h) = (0, 6, 0)</title>
  </rect>
  <rect
     fill="#dae3f3"
     height="85"
     stroke="#1f77b4"
     stroke-width="2"
     width="85"
     x="510"
     y="85"
     id="rect178">
    <title
       id="title176">(l, w, h) = (0, 6, 1)</title>
  </rect>
  <rect
     fill="#dae3f3"
     height="85"
     stroke="#1f77b4"
     stroke-width="2"
     width="85"
     x="510"
     y="170"
     id="rect182">
    <title
       id="title180">(l, w, h) = (0, 6, 2)</title>
  </rect>
  <rect
     fill="#dae3f3"
     height="85"
     stroke="#1f77b4"
     stroke-width="2"
     width="85"
     x="510"
     y="255"
     id="rect186">
    <title
       id="title184">(l, w, h) = (0, 6, 3)</title>
  </rect>
  <rect
     fill="#dae3f3"
     height="85"
     stroke="#1f77b4"
     stroke-width="2"
     width="85"
     x="510"
     y="340"
     id="rect190">
    <title
       id="title188">(l, w, h) = (0, 6, 4)</title>
  </rect>
  <rect
     fill="#dae3f3"
     height="85"
     stroke="#1f77b4"
     stroke-width="2"
     width="85"
     x="510"
     y="425"
     id="rect194">
    <title
       id="title192">(l, w, h) = (0, 6, 5)</title>
  </rect>
  <rect
     fill="#dae3f3"
     height="85"
     stroke="#1f77b4"
     stroke-width="2"
     width="85"
     x="510"
     y="510"
     id="rect198">
    <title
       id="title196">(l, w, h) = (0, 6, 6)</title>
  </rect>
  <rect
     fill="#dae3f3"
     height="85"
     stroke="#1f77b4"
     stroke-width="2"
     width="85"
     x="645"
     y="0"
     id="rect202">
    <title
       id="title200">(l, w, h) = (1, 0, 0)</title>
  </rect>
  <rect
     fill="#dae3f3"
     height="85"
     stroke="#1f77b4"
     stroke-width="2"
     width="85"
     x="645"
     y="85"
     id="rect206">
    <title
       id="title204">(l, w, h) = (1, 0, 1)</title>
  </rect>
  <rect
     fill="#dae3f3"
     height="85"
     stroke="#1f77b4"
     stroke-width="2"
     width="85"
     x="645"
     y="170"
     id="rect210">
    <title
       id="title208">(l, w, h) = (1, 0, 2)</title>
  </rect>
  <rect
     fill="#dae3f3"
     height="85"
     stroke="#1f77b4"
     stroke-width="2"
     width="85"
     x="645"
     y="255"
     id="rect214">
    <title
       id="title212">(l, w, h) = (1, 0, 3)</title>
  </rect>
  <rect
     fill="#dae3f3"
     height="85"
     stroke="#1f77b4"
     stroke-width="2"
     width="85"
     x="645"
     y="340"
     id="rect218">
    <title
       id="title216">(l, w, h) = (1, 0, 4)</title>
  </rect>
  <rect
     fill="#dae3f3"
     height="85"
     stroke="#1f77b4"
     stroke-width="2"
     width="85"
     x="645"
     y="425"
     id="rect222">
    <title
       id="title220">(l, w, h) = (1, 0, 5)</title>
  </rect>
  <rect
     fill="#dae3f3"
     height="85"
     stroke="#1f77b4"
     stroke-width="2"
     width="85"
     x="645"
     y="510"
     id="rect226">
    <title
       id="title224">(l, w, h) = (1, 0, 6)</title>
  </rect>
  <rect
     fill="#dae3f3"
     height="85"
     stroke="#1f77b4"
     stroke-width="2"
     width="85"
     x="730"
     y="0"
     id="rect230">
    <title
       id="title228">(l, w, h) = (1, 1, 0)</title>
  </rect>
  <rect
     fill="#dae3f3"
     height="85"
     stroke="#1f77b4"
     stroke-width="2"
     width="85"
     x="730"
     y="85"
     id="rect234">
    <title
       id="title232">(l, w, h) = (1, 1, 1)</title>
  </rect>
  <rect
     fill="#dae3f3"
     height="85"
     stroke="#1f77b4"
     stroke-width="2"
     width="85"
     x="730"
     y="170"
     id="rect238">
    <title
       id="title236">(l, w, h) = (1, 1, 2)</title>
  </rect>
  <rect
     fill="#dae3f3"
     height="85"
     stroke="#1f77b4"
     stroke-width="2"
     width="85"
     x="730"
     y="255"
     id="rect242">
    <title
       id="title240">(l, w, h) = (1, 1, 3)</title>
  </rect>
  <rect
     fill="#dae3f3"
     height="85"
     stroke="#1f77b4"
     stroke-width="2"
     width="85"
     x="730"
     y="340"
     id="rect246">
    <title
       id="title244">(l, w, h) = (1, 1, 4)</title>
  </rect>
  <rect
     fill="#dae3f3"
     height="85"
     stroke="#1f77b4"
     stroke-width="2"
     width="85"
     x="730"
     y="425"
     id="rect250">
    <title
       id="title248">(l, w, h) = (1, 1, 5)</title>
  </rect>
  <rect
     fill="#dae3f3"
     height="85"
     stroke="#1f77b4"
     stroke-width="2"
     width="85"
     x="730"
     y="510"
     id="rect254">
    <title
       id="title252">(l, w, h) = (1, 1, 6)</title>
  </rect>
  <rect
     fill="#dae3f3"
     height="85"
     stroke="#1f77b4"
     stroke-width="2"
     width="85"
     x="815"
     y="0"
     id="rect258">
    <title
       id="title256">(l, w, h) = (1, 2, 0)</title>
  </rect>
  <rect
     fill="#dae3f3"
     height="85"
     stroke="#1f77b4"
     stroke-width="2"
     width="85"
     x="815"
     y="85"
     id="rect262">
    <title
       id="title260">(l, w, h) = (1, 2, 1)</title>
  </rect>
  <rect
     fill="#dae3f3"
     height="85"
     stroke="#1f77b4"
     stroke-width="2"
     width="85"
     x="815"
     y="170"
     id="rect266">
    <title
       id="title264">(l, w, h) = (1, 2, 2)</title>
  </rect>
  <rect
     fill="#dae3f3"
     height="85"
     stroke="#1f77b4"
     stroke-width="2"
     width="85"
     x="815"
     y="255"
     id="rect270">
    <title
       id="title268">(l, w, h) = (1, 2, 3)</title>
  </rect>
  <rect
     fill="#dae3f3"
     height="85"
     stroke="#1f77b4"
     stroke-width="2"
     width="85"
     x="815"
     y="340"
     id="rect274">
    <title
       id="title272">(l, w, h) = (1, 2, 4)</title>
  </rect>
  <rect
     fill="#dae3f3"
     height="85"
     stroke="#1f77b4"
     stroke-width="2"
     width="85"
     x="815"
     y="425"
     id="rect278">
    <title
       id="title276">(l, w, h) = (1, 2, 5)</title>
  </rect>
  <rect
     fill="#dae3f3"
     height="85"
     stroke="#1f77b4"
     stroke-width="2"
     width="85"
     x="815"
     y="510"
     id="rect282">
    <title
       id="title280">(l, w, h) = (1, 2, 6)</title>
  </rect>
  <rect
     fill="#dae3f3"
     height="85"
     stroke="#1f77b4"
     stroke-width="2"
     width="85"
     x="900"
     y="0"
     id="rect286">
    <title
       id="title284">(l, w, h) = (1, 3, 0)</title>
  </rect>
  <rect
     fill="#dae3f3"
     height="85"
     stroke="#1f77b4"
     stroke-width="2"
     width="85"
     x="900"
     y="85"
     id="rect290">
    <title
       id="title288">(l, w, h) = (1, 3, 1)</title>
  </rect>
  <rect
     fill="#dae3f3"
     height="85"
     stroke="#1f77b4"
     stroke-width="2"
     width="85"
     x="900"
     y="170"
     id="rect294">
    <title
       id="title292">(l, w, h) = (1, 3, 2)</title>
  </rect>
  <rect
     fill="#dae3f3"
     height="85"
     stroke="#1f77b4"
     stroke-width="2"
     width="85"
     x="900"
     y="255"
     id="rect298">
    <title
       id="title296">(l, w, h) = (1, 3, 3)</title>
  </rect>
  <rect
     fill="#dae3f3"
     height="85"
     stroke="#1f77b4"
     stroke-width="2"
     width="85"
     x="900"
     y="340"
     id="rect302">
    <title
       id="title300">(l, w, h) = (1, 3, 4)</title>
  </rect>
  <rect
     fill="#dae3f3"
     height="85"
     stroke="#1f77b4"
     stroke-width="2"
     width="85"
     x="900"
     y="425"
     id="rect306">
    <title
       id="title304">(l, w, h) = (1, 3, 5)</title>
  </rect>
  <rect
     fill="#dae3f3"
     height="85"
     stroke="#1f77b4"
     stroke-width="2"
     width="85"
     x="900"
     y="510"
     id="rect310">
    <title
       id="title308">(l, w, h) = (1, 3, 6)</title>
  </rect>
  <rect
     fill="#dae3f3"
     height="85"
     stroke="#1f77b4"
     stroke-width="2"
     width="85"
     x="985"
     y="0"
     id="rect314">
    <title
       id="title312">(l, w, h) = (1, 4, 0)</title>
  </rect>
  <rect
     fill="#dae3f3"
     height="85"
     stroke="#1f77b4"
     stroke-width="2"
     width="85"
     x="985"
     y="85"
     id="rect318">
    <title
       id="title316">(l, w, h) = (1, 4, 1)</title>
  </rect>
  <rect
     fill="#dae3f3"
     height="85"
     stroke="#1f77b4"
     stroke-width="2"
     width="85"
     x="985"
     y="170"
     id="rect322">
    <title
       id="title320">(l, w, h) = (1, 4, 2)</title>
  </rect>
  <rect
     fill="#dae3f3"
     height="85"
     stroke="#1f77b4"
     stroke-width="2"
     width="85"
     x="985"
     y="255"
     id="rect326">
    <title
       id="title324">(l, w, h) = (1, 4, 3)</title>
  </rect>
  <rect
     fill="#dae3f3"
     height="85"
     stroke="#1f77b4"
     stroke-width="2"
     width="85"
     x="985"
     y="340"
     id="rect330">
    <title
       id="title328">(l, w, h) = (1, 4, 4)</title>
  </rect>
  <rect
     fill="#dae3f3"
     height="85"
     stroke="#1f77b4"
     stroke-width="2"
     width="85"
     x="985"
     y="425"
     id="rect334">
    <title
       id="title332">(l, w, h) = (1, 4, 5)</title>
  </rect>
  <rect
     fill="#dae3f3"
     height="85"
     stroke="#1f77b4"
     stroke-width="2"
     width="85"
     x="985"
     y="510"
     id="rect338">
    <title
       id="title336">(l, w, h) = (1, 4, 6)</title>
  </rect>
  <rect
     fill="#dae3f3"
     height="85"
     stroke="#1f77b4"
     stroke-width="2"
     width="85"
     x="1070"
     y="0"
     id="rect342">
    <title
       id="title340">(l, w, h) = (1, 5, 0)</title>
  </rect>
  <rect
     fill="#dae3f3"
     height="85"
     stroke="#1f77b4"
     stroke-width="2"
     width="85"
     x="1070"
     y="85"
     id="rect346">
    <title
       id="title344">(l, w, h) = (1, 5, 1)</title>
  </rect>
  <rect
     fill="#dae3f3"
     height="85"
     stroke="#1f77b4"
     stroke-width="2"
     width="85"
     x="1070"
     y="170"
     id="rect350">
    <title
       id="title348">(l, w, h) = (1, 5, 2)</title>
  </rect>
  <rect
     fill="#dae3f3"
     height="85"
     stroke="#1f77b4"
     stroke-width="2"
     width="85"
     x="1070"
     y="255"
     id="rect354">
    <title
       id="title352">(l, w, h) = (1, 5, 3)</title>
  </rect>
  <rect
     fill="#dae3f3"
     height="85"
     stroke="#1f77b4"
     stroke-width="2"
     width="85"
     x="1070"
     y="340"
     id="rect358">
    <title
       id="title356">(l, w, h) = (1, 5, 4)</title>
  </rect>
  <rect
     fill="#dae3f3"
     height="85"
     stroke="#1f77b4"
     stroke-width="2"
     width="85"
     x="1070"
     y="425"
     id="rect362">
    <title
       id="title360">(l, w, h) = (1, 5, 5)</title>
  </rect>
  <rect
     fill="#dae3f3"
     height="85"
     stroke="#1f77b4"
     stroke-width="2"
     width="85"
     x="1070"
     y="510"
     id="rect366">
    <title
       id="title364">(l, w, h) = (1, 5, 6)</title>
  </rect>
  <rect
     fill="#dae3f3"
     height="85"
     stroke="#1f77b4"
     stroke-width="2"
     width="85"
     x="1155"
     y="0"
     id="rect370">
    <title
       id="title368">(l, w, h) = (1, 6, 0)</title>
  </rect>
  <rect
     fill="#dae3f3"
     height="85"
     stroke="#1f77b4"
     stroke-width="2"
     width="85"
     x="1155"
     y="85"
     id="rect374">
    <title
       id="title372">(l, w, h) = (1, 6, 1)</title>
  </rect>
  <rect
     fill="#dae3f3"
     height="85"
     stroke="#1f77b4"
     stroke-width="2"
     width="85"
     x="1155"
     y="170"
     id="rect378">
    <title
       id="title376">(l, w, h) = (1, 6, 2)</title>
  </rect>
  <rect
     fill="#dae3f3"
     height="85"
     stroke="#1f77b4"
     stroke-width="2"
     width="85"
     x="1155"
     y="255"
     id="rect382">
    <title
       id="title380">(l, w, h) = (1, 6, 3)</title>
  </rect>
  <rect
     fill="#dae3f3"
     height="85"
     stroke="#1f77b4"
     stroke-width="2"
     width="85"
     x="1155"
     y="340"
     id="rect386">
    <title
       id="title384">(l, w, h) = (1, 6, 4)</title>
  </rect>
  <rect
     fill="#dae3f3"
     height="85"
     stroke="#1f77b4"
     stroke-width="2"
     width="85"
     x="1155"
     y="425"
     id="rect390">
    <title
       id="title388">(l, w, h) = (1, 6, 5)</title>
  </rect>
  <rect
     fill="#dae3f3"
     height="85"
     stroke="#1f77b4"
     stroke-width="2"
     width="85"
     x="1155"
     y="510"
     id="rect394">
    <title
       id="title392">(l, w, h) = (1, 6, 6)</title>
  </rect>
  <rect
     fill="#1f77b4"
     height="83"
     stroke=""
     stroke-width="0"
     width="83"
     x="986"
     y="1"
     id="rect398">
    <title
       id="title396">Qubit 1, (l, w, h) = (1, 4, 0)</title>
  </rect>
  <rect
     fill="#1f77b4"
     height="83"
     stroke=""
     stroke-width="0"
     width="83"
     x="1"
     y="341"
     id="rect402">
    <title
       id="title400">Qubit 2, (l, w, h) = (0, 0, 4)</title>
  </rect>
  <rect
     fill="#1f77b4"
     height="83"
     stroke=""
     stroke-width="0"
     width="83"
     x="646"
     y="511"
     id="rect406">
    <title
       id="title404">Qubit 3, (l, w, h) = (1, 0, 6)</title>
  </rect>
  <rect
     fill="#1f77b4"
     height="83"
     stroke=""
     stroke-width="0"
     width="83"
     x="1156"
     y="171"
     id="rect410">
    <title
       id="title408">Qubit 4, (l, w, h) = (1, 6, 2)</title>
  </rect>
  <rect
     fill="#ff7f0e"
     height="83"
     stroke=""
     stroke-width="0"
     width="83"
     x="171"
     y="1"
     id="rect414">
    <title
       id="title412">Qubit 5, (l, w, h) = (0, 2, 0)</title>
  </rect>
  <rect
     fill="#ff7f0e"
     height="83"
     stroke=""
     stroke-width="0"
     width="83"
     x="341"
     y="171"
     id="rect418">
    <title
       id="title416">Qubit 6, (l, w, h) = (0, 4, 2)</title>
  </rect>
  <rect
     fill="#2ca02c"
     height="83"
     stroke=""
     stroke-width="0"
     width="83"
     x="341"
     y="341"
     id="rect422">
    <title
       id="title420">Qubit 7, (l, w, h) = (0, 4, 4)</title>
  </rect>
  <rect
     fill="#2ca02c"
     height="83"
     stroke=""
     stroke-width="0"
     width="83"
     x="816"
     y="341"
     id="rect426">
    <title
       id="title424">Qubit 8, (l, w, h) = (1, 2, 4)</title>
  </rect>
  <rect
     fill="#808080"
     height="83"
     stroke=""
     stroke-width="0"
     width="83"
     x="646"
     y="1"
     id="rect430">
    <title
       id="title428">Qubit 9, (l, w, h) = (1, 0, 0)</title>
  </rect>
  <rect
     fill="#808080"
     height="83"
     stroke=""
     stroke-width="0"
     width="83"
     x="1"
     y="511"
     id="rect434">
    <title
       id="title432">Qubit 10, (l, w, h) = (0, 0, 6)</title>
  </rect>
  <rect
     fill="#808080"
     height="83"
     stroke=""
     stroke-width="0"
     width="83"
     x="341"
     y="1"
     id="rect438">
    <title
       id="title436">Qubit 11, (l, w, h) = (0, 4, 0)</title>
  </rect>
  <rect
     fill="#808080"
     height="83"
     stroke=""
     stroke-width="0"
     width="83"
     x="986"
     y="341"
     id="rect442">
    <title
       id="title440">Qubit 12, (l, w, h) = (1, 4, 4)</title>
  </rect>
  <rect
     fill="#808080"
     height="83"
     stroke=""
     stroke-width="0"
     width="83"
     x="986"
     y="171"
     id="rect446">
    <title
       id="title444">Qubit 13, (l, w, h) = (1, 4, 2)</title>
  </rect>
  <rect
     fill="#808080"
     height="83"
     stroke=""
     stroke-width="0"
     width="83"
     x="816"
     y="511"
     id="rect450">
    <title
       id="title448">Qubit 14, (l, w, h) = (1, 2, 6)</title>
  </rect>
  <rect
     fill="#808080"
     height="83"
     stroke=""
     stroke-width="0"
     width="83"
     x="1156"
     y="1"
     id="rect454">
    <title
       id="title452">Qubit 15, (l, w, h) = (1, 6, 0)</title>
  </rect>
  <rect
     fill="#808080"
     height="83"
     stroke=""
     stroke-width="0"
     width="83"
     x="511"
     y="1"
     id="rect458">
    <title
       id="title456">Qubit 16, (l, w, h) = (0, 6, 0)</title>
  </rect>
  <rect
     fill="#808080"
     height="83"
     stroke=""
     stroke-width="0"
     width="83"
     x="171"
     y="341"
     id="rect462">
    <title
       id="title460">Qubit 17, (l, w, h) = (0, 2, 4)</title>
  </rect>
  <rect
     fill="#808080"
     height="83"
     stroke=""
     stroke-width="0"
     width="83"
     x="816"
     y="1"
     id="rect466">
    <title
       id="title464">Qubit 18, (l, w, h) = (1, 2, 0)</title>
  </rect>
  <rect
     fill="#808080"
     height="83"
     stroke=""
     stroke-width="0"
     width="83"
     x="511"
     y="341"
     id="rect470">
    <title
       id="title468">Qubit 19, (l, w, h) = (0, 6, 4)</title>
  </rect>
  <rect
     fill="#808080"
     height="83"
     stroke=""
     stroke-width="0"
     width="83"
     x="1156"
     y="511"
     id="rect474">
    <title
       id="title472">Qubit 20, (l, w, h) = (1, 6, 6)</title>
  </rect>
  <rect
     fill="#808080"
     height="83"
     stroke=""
     stroke-width="0"
     width="83"
     x="341"
     y="511"
     id="rect478">
    <title
       id="title476">Qubit 21, (l, w, h) = (0, 4, 6)</title>
  </rect>
  <rect
     fill="#808080"
     height="83"
     stroke=""
     stroke-width="0"
     width="83"
     x="1156"
     y="341"
     id="rect482">
    <title
       id="title480">Qubit 22, (l, w, h) = (1, 6, 4)</title>
  </rect>
  <rect
     fill="#808080"
     height="83"
     stroke=""
     stroke-width="0"
     width="83"
     x="646"
     y="171"
     id="rect486">
    <title
       id="title484">Qubit 23, (l, w, h) = (1, 0, 2)</title>
  </rect>
  <rect
     fill="#808080"
     height="83"
     stroke=""
     stroke-width="0"
     width="83"
     x="1"
     y="1"
     id="rect490">
    <title
       id="title488">Qubit 24, (l, w, h) = (0, 0, 0)</title>
  </rect>
  <rect
     fill="#111111"
     height="618.8000000000001"
     width="5"
     x="617.5"
     y="-11.9"
     id="rect492" />
  <g
     aria-label="1"
     id="text494"
     style="font-size:56px;dominant-baseline:central;text-anchor:middle">
    <path
       d="m 1016.1309,51.898437 h 9.0234 V 20.753906 l -9.8164,1.96875 v -5.03125 l 9.7617,-1.96875 h 5.5234 v 36.175781 h 9.0235 v 4.648438 h -23.5156 z"
       id="path547" />
  </g>
  <g
     aria-label="2"
     id="text496"
     style="font-size:56px;dominant-baseline:central;text-anchor:middle">
    <path
       d="m 34.931641,391.89844 h 19.277343 v 4.64843 H 28.287109 v -4.64843 q 3.144532,-3.25391 8.558594,-8.72266 5.441406,-5.49609 6.835938,-7.08203 2.652343,-2.98047 3.691406,-5.03125 1.066406,-2.07813 1.066406,-4.07422 0,-3.25391 -2.296875,-5.30469 -2.269531,-2.05078 -5.933594,-2.05078 -2.597656,0 -5.496093,0.90235 -2.871094,0.90234 -6.152344,2.73437 v -5.57812 q 3.335937,-1.33985 6.234375,-2.02344 2.898437,-0.6836 5.304687,-0.6836 6.34375,0 10.117188,3.17188 3.773437,3.17187 3.773437,8.47656 0,2.51563 -0.957031,4.78516 -0.929687,2.24219 -3.417969,5.30469 -0.683593,0.79296 -4.347656,4.59375 -3.664062,3.77343 -10.335937,10.58203 z"
       id="path550" />
  </g>
  <g
     aria-label="3"
     id="text498"
     style="font-size:56px;dominant-baseline:central;text-anchor:middle">
    <path
       d="m 691.9082,544.53516 q 3.96485,0.84765 6.17969,3.52734 2.24219,2.67969 2.24219,6.61719 0,6.04297 -4.15625,9.35156 -4.15625,3.30859 -11.8125,3.30859 -2.57031,0 -5.30469,-0.51953 -2.70703,-0.49219 -5.60547,-1.5039 v -5.33204 q 2.29688,1.33985 5.03125,2.02344 2.73438,0.6836 5.71485,0.6836 5.19531,0 7.90234,-2.05079 2.73437,-2.05078 2.73437,-5.96093 0,-3.60938 -2.54296,-5.63282 -2.51563,-2.05078 -7.02735,-2.05078 h -4.75781 v -4.53906 h 4.97656 q 4.07422,0 6.23438,-1.61328 2.16015,-1.64063 2.16015,-4.70313 0,-3.14453 -2.24218,-4.8125 -2.21485,-1.69531 -6.3711,-1.69531 -2.26953,0 -4.86719,0.49219 -2.59765,0.49219 -5.71484,1.53125 v -4.92188 q 3.14453,-0.875 5.87891,-1.3125 2.76172,-0.4375 5.19531,-0.4375 6.28906,0 9.95312,2.8711 3.66407,2.84375 3.66407,7.71094 0,3.39062 -1.94141,5.74218 -1.94141,2.32422 -5.52344,3.22657 z"
       id="path553" />
  </g>
  <g
     aria-label="4"
     id="text500"
     style="font-size:56px;dominant-baseline:central;text-anchor:middle">
    <path
       d="m 1200.3496,190.53516 -13.9453,21.79296 h 13.9453 z m -1.4492,-4.8125 h 6.9453 v 26.60546 h 5.8242 v 4.59375 h -5.8242 v 9.625 h -5.4961 v -9.625 h -18.4297 v -5.33203 z"
       id="path556" />
  </g>
  <g
     aria-label="5"
     id="text502"
     style="font-size:56px;dominant-baseline:central;text-anchor:middle">
    <path
       d="m 200.22852,15.722656 h 21.68359 v 4.648438 h -16.625 v 10.007812 q 1.20312,-0.410156 2.40625,-0.601562 1.20312,-0.21875 2.40625,-0.21875 6.83594,0 10.82812,3.746093 3.99219,3.746094 3.99219,10.144532 0,6.589843 -4.10156,10.253906 -4.10156,3.636719 -11.56641,3.636719 -2.57031,0 -5.25,-0.4375 -2.65234,-0.4375 -5.49609,-1.3125 v -5.550782 q 2.46094,1.339844 5.08594,1.996094 2.625,0.65625 5.55078,0.65625 4.73047,0 7.49219,-2.488281 2.76171,-2.488281 2.76171,-6.753906 0,-4.265625 -2.76171,-6.753907 -2.76172,-2.488281 -7.49219,-2.488281 -2.21485,0 -4.42969,0.492188 -2.1875,0.492187 -4.48437,1.53125 z"
       id="path559" />
  </g>
  <g
     aria-label="6"
     id="text504"
     style="font-size:56px;dominant-baseline:central;text-anchor:middle">
    <path
       d="m 382.66992,203.93359 q -3.71875,0 -5.90625,2.54297 -2.16015,2.54297 -2.16015,6.97266 0,4.40234 2.16015,6.97265 2.1875,2.54297 5.90625,2.54297 3.71875,0 5.87891,-2.54297 2.1875,-2.57031 2.1875,-6.97265 0,-4.42969 -2.1875,-6.97266 -2.16016,-2.54297 -5.87891,-2.54297 z M 393.63477,186.625 v 5.03125 q -2.07813,-0.98438 -4.21094,-1.50391 -2.10547,-0.51953 -4.1836,-0.51953 -5.46875,0 -8.36718,3.69141 -2.8711,3.6914 -3.28125,11.15625 1.61328,-2.37891 4.04687,-3.63672 2.4336,-1.28516 5.35938,-1.28516 6.15234,0 9.70703,3.7461 3.58203,3.71875 3.58203,10.14453 0,6.28906 -3.71875,10.08984 -3.71875,3.80078 -9.89844,3.80078 -7.08203,0 -10.82812,-5.41406 -3.7461,-5.44141 -3.7461,-15.75 0,-9.67969 4.59375,-15.42187 4.59375,-5.76954 12.33203,-5.76954 2.07813,0 4.1836,0.41016 2.13281,0.41016 4.42969,1.23047 z"
       id="path562" />
  </g>
  <g
     aria-label="7"
     id="text506"
     style="font-size:56px;dominant-baseline:central;text-anchor:middle">
    <path
       d="m 368.7793,355.72266 h 26.25 v 2.35156 l -14.82032,38.47265 h -5.76953 l 13.94532,-36.17578 H 368.7793 Z"
       id="path565" />
  </g>
  <g
     aria-label="8"
     id="text508"
     style="font-size:56px;dominant-baseline:central;text-anchor:middle">
    <path
       d="m 856.98633,377.16016 q -3.9375,0 -6.20703,2.10546 -2.24219,2.10547 -2.24219,5.79688 0,3.69141 2.24219,5.79687 2.26953,2.10547 6.20703,2.10547 3.9375,0 6.20703,-2.10547 2.26953,-2.13281 2.26953,-5.79687 0,-3.69141 -2.26953,-5.79688 -2.24219,-2.10546 -6.20703,-2.10546 z m -5.52344,-2.35157 q -3.55469,-0.875 -5.55078,-3.30859 -1.96875,-2.43359 -1.96875,-5.93359 0,-4.89454 3.47266,-7.73829 3.5,-2.84375 9.57031,-2.84375 6.09765,0 9.57031,2.84375 3.47266,2.84375 3.47266,7.73829 0,3.5 -1.9961,5.93359 -1.96875,2.43359 -5.49609,3.30859 3.99219,0.92969 6.20703,3.63672 2.24219,2.70703 2.24219,6.61719 0,5.93359 -3.63672,9.10547 -3.60938,3.17187 -10.36328,3.17187 -6.75391,0 -10.39063,-3.17187 -3.60937,-3.17188 -3.60937,-9.10547 0,-3.91016 2.24219,-6.61719 2.24218,-2.70703 6.23437,-3.63672 z m -2.02344,-8.72265 q 0,3.17187 1.96875,4.94922 1.9961,1.77734 5.57813,1.77734 3.55469,0 5.55078,-1.77734 2.02344,-1.77735 2.02344,-4.94922 0,-3.17188 -2.02344,-4.94922 -1.99609,-1.77735 -5.55078,-1.77735 -3.58203,0 -5.57813,1.77735 -1.96875,1.77734 -1.96875,4.94922 z"
       id="path568" />
  </g>
  <g
     aria-label="M"
     id="text510"
     style="font-size:28px;dominant-baseline:central;text-anchor:middle">
    <path
       d="m 656.66895,7.8613281 h 4.11523 l 5.20898,13.8906249 5.23633,-13.8906249 h 4.11524 V 28.273437 h -2.69336 V 10.349609 l -5.26367,14 h -2.7754 l -5.26367,-14 v 17.923828 h -2.67968 z"
       id="path571" />
  </g>
  <g
     aria-label="M"
     id="text512"
     style="font-size:28px;dominant-baseline:central;text-anchor:middle">
    <path
       d="m 11.668945,517.86133 h 4.115235 l 5.208984,13.89062 5.236328,-13.89062 h 4.115235 v 20.41211 h -2.69336 v -17.92383 l -5.263672,14 h -2.77539 l -5.263672,-14 v 17.92383 h -2.679688 z"
       id="path574" />
  </g>
  <g
     aria-label="M"
     id="text514"
     style="font-size:28px;dominant-baseline:central;text-anchor:middle">
    <path
       d="m 351.66895,7.8613281 h 4.11523 l 5.20898,13.8906249 5.23633,-13.8906249 h 4.11524 V 28.273437 h -2.69336 V 10.349609 l -5.26367,14 h -2.7754 l -5.26367,-14 v 17.923828 h -2.67968 z"
       id="path577" />
  </g>
  <g
     aria-label="M"
     id="text516"
     style="font-size:28px;dominant-baseline:central;text-anchor:middle">
    <path
       d="m 996.66895,347.86133 h 4.11525 l 5.209,13.89062 5.2363,-13.89062 h 4.1152 v 20.41211 h -2.6933 v -17.92383 l -5.2637,14 h -2.7754 l -5.26367,-14 v 17.92383 h -2.67968 z"
       id="path580" />
  </g>
  <g
     aria-label="M"
     id="text518"
     style="font-size:28px;dominant-baseline:central;text-anchor:middle">
    <path
       d="m 996.66895,177.86133 h 4.11525 l 5.209,13.89062 5.2363,-13.89062 h 4.1152 v 20.41211 h -2.6933 v -17.92383 l -5.2637,14 h -2.7754 l -5.26367,-14 v 17.92383 h -2.67968 z"
       id="path583" />
  </g>
  <g
     aria-label="M"
     id="text520"
     style="font-size:28px;dominant-baseline:central;text-anchor:middle">
    <path
       d="m 826.66895,517.86133 h 4.11523 l 5.20898,13.89062 5.23633,-13.89062 h 4.11524 v 20.41211 h -2.69336 v -17.92383 l -5.26367,14 h -2.7754 l -5.26367,-14 v 17.92383 h -2.67968 z"
       id="path586" />
  </g>
  <g
     aria-label="M"
     id="text522"
     style="font-size:28px;dominant-baseline:central;text-anchor:middle">
    <path
       d="m 1166.6689,7.8613281 h 4.1153 l 5.209,13.8906249 5.2363,-13.8906249 h 4.1152 V 28.273437 h -2.6933 V 10.349609 l -5.2637,14 h -2.7754 l -5.2637,-14 v 17.923828 h -2.6797 z"
       id="path589" />
  </g>
  <g
     aria-label="M"
     id="text524"
     style="font-size:28px;dominant-baseline:central;text-anchor:middle">
    <path
       d="m 521.66895,7.8613281 h 4.11523 l 5.20898,13.8906249 5.23633,-13.8906249 h 4.11524 V 28.273437 h -2.69336 V 10.349609 l -5.26367,14 h -2.7754 l -5.26367,-14 v 17.923828 h -2.67968 z"
       id="path592" />
  </g>
  <g
     aria-label="M"
     id="text526"
     style="font-size:28px;dominant-baseline:central;text-anchor:middle">
    <path
       d="m 181.66895,347.86133 h 4.11523 l 5.20898,13.89062 5.23633,-13.89062 h 4.11524 v 20.41211 h -2.69336 v -17.92383 l -5.26367,14 h -2.7754 l -5.26367,-14 v 17.92383 h -2.67968 z"
       id="path595" />
  </g>
  <g
     aria-label="M"
     id="text528"
     style="font-size:28px;dominant-baseline:central;text-anchor:middle">
    <path
       d="m 826.66895,7.8613281 h 4.11523 l 5.20898,13.8906249 5.23633,-13.8906249 h 4.11524 V 28.273437 h -2.69336 V 10.349609 l -5.26367,14 h -2.7754 l -5.26367,-14 v 17.923828 h -2.67968 z"
       id="path598" />
  </g>
  <g
     aria-label="M"
     id="text530"
     style="font-size:28px;dominant-baseline:central;text-anchor:middle">
    <path
       d="m 521.66895,347.86133 h 4.11523 l 5.20898,13.89062 5.23633,-13.89062 h 4.11524 v 20.41211 h -2.69336 v -17.92383 l -5.26367,14 h -2.7754 l -5.26367,-14 v 17.92383 h -2.67968 z"
       id="path601" />
  </g>
  <g
     aria-label="M"
     id="text532"
     style="font-size:28px;dominant-baseline:central;text-anchor:middle">
    <path
       d="m 1166.6689,517.86133 h 4.1153 l 5.209,13.89062 5.2363,-13.89062 h 4.1152 v 20.41211 h -2.6933 v -17.92383 l -5.2637,14 h -2.7754 l -5.2637,-14 v 17.92383 h -2.6797 z"
       id="path604" />
  </g>
  <g
     aria-label="M"
     id="text534"
     style="font-size:28px;dominant-baseline:central;text-anchor:middle">
    <path
       d="m 351.66895,517.86133 h 4.11523 l 5.20898,13.89062 5.23633,-13.89062 h 4.11524 v 20.41211 h -2.69336 v -17.92383 l -5.26367,14 h -2.7754 l -5.26367,-14 v 17.92383 h -2.67968 z"
       id="path607" />
  </g>
  <g
     aria-label="M"
     id="text536"
     style="font-size:28px;dominant-baseline:central;text-anchor:middle">
    <path
       d="m 1166.6689,347.86133 h 4.1153 l 5.209,13.89062 5.2363,-13.89062 h 4.1152 v 20.41211 h -2.6933 v -17.92383 l -5.2637,14 h -2.7754 l -5.2637,-14 v 17.92383 h -2.6797 z"
       id="path610" />
  </g>
  <g
     aria-label="M"
     id="text538"
     style="font-size:28px;dominant-baseline:central;text-anchor:middle">
    <path
       d="m 656.66895,177.86133 h 4.11523 l 5.20898,13.89062 5.23633,-13.89062 h 4.11524 v 20.41211 h -2.69336 v -17.92383 l -5.26367,14 h -2.7754 l -5.26367,-14 v 17.92383 h -2.67968 z"
       id="path613" />
  </g>
  <g
     aria-label="M"
     id="text540"
     style="font-size:28px;dominant-baseline:central;text-anchor:middle">
    <path
       d="M 11.668945,7.8613281 H 15.78418 L 20.993164,21.751953 26.229492,7.8613281 h 4.115235 V 28.273437 h -2.69336 V 10.349609 l -5.263672,14 h -2.77539 l -5.263672,-14 v 17.923828 h -2.679688 z"
       id="path616" />
  </g>
</svg>
